<svg xmlns="http://www.w3.org/2000/svg" xmlns:xlink="http://www.w3.org/1999/xlink" version="1.1" x="0px" y="0px" viewBox="0 0 100 125" enable-background="new 0 0 100 100"><metadata><sfw xmlns="http://ns.adobe.com/SaveForWeb/1.0/"><slices/><sliceSourceBounds width="1447.2" height="1444.2" x="1" y="-1446.1" bottomLeftOrigin="true"/></sfw></metadata><circle r="80" cx="50" cy="50" stroke="currentColor" fill="none" stroke-width="3"/>
<path xmlns="http://www.w3.org/2000/svg" d="M51.6,26.9c0,9.3,7.6,16.9,16.9,16.9c9.3,0,16.9-7.6,16.9-16.9S77.9,10,68.5,10C59.2,10,51.6,17.6,51.6,26.9z M80.5,26.9  c0,6.6-5.3,11.9-11.9,11.9s-11.9-5.3-11.9-11.9S62,15,68.5,15S80.5,20.4,80.5,26.9z M99,87.5V63.9c0-9.2-7.5-16.7-16.7-16.7H54.8  c-9.2,0-16.7,7.5-16.7,16.7v23.6c0,1.4,1.1,2.5,2.5,2.5h55.9C97.9,90,99,88.9,99,87.5z M94,85H43.1V63.9c0-6.4,5.2-11.7,11.7-11.7  h27.5c6.4,0,11.7,5.2,11.7,11.7V85z M6,63.9V85h23.6c1.4,0,2.5,1.1,2.5,2.5S31,90,29.6,90H3.5C2.1,90,1,88.9,1,87.5V63.9  c0-9.2,7.5-16.7,16.7-16.7h17c1.4,0,2.5,1.1,2.5,2.5s-1.1,2.5-2.5,2.5h-17C11.2,52.2,6,57.4,6,63.9z M48.4,26.9  c0-9.3-7.6-16.9-16.9-16.9c-9.3,0-16.9,7.6-16.9,16.9s7.6,16.9,16.9,16.9C40.8,43.8,48.4,36.3,48.4,26.9z M31.5,38.8  c-6.6,0-11.9-5.3-11.9-11.9S24.9,15,31.5,15s11.9,5.3,11.9,11.9S38,38.8,31.5,38.8z"/></svg>